<?xml version="1.0" encoding="utf-8" ?>
<svg baseProfile="full" height="200mm" version="1.1" viewBox="0,0,200,200" width="200mm" xmlns="http://www.w3.org/2000/svg" xmlns:ev="http://www.w3.org/2001/xml-events" xmlns:xlink="http://www.w3.org/1999/xlink"><defs /><rect fill="#1a1a1a" height="200" width="200" x="0" y="0" /><text alignment-baseline="middle" fill="#e1ed5e" style="dominant-baseline: central; font-size:9.0px; font-family:Arial;" text-anchor="middle" x="100.0" y="100.0">2022</text><line stroke="#e1ed5e" stroke-width="0.3" x1="100.0" x2="100.0" y1="15.0" y2="10.0" /><path d="M 100.0 14.0 a86.0,86.0 0 0,1 42.46469731375804,11.215312516191453" fill="none" id="id73" stroke="none" /><text fill="#e1ed5e" style="font-size:6.75px; font-family:Arial;" text-anchor="middle"><textPath startOffset="22.20632615414155" xlink:href="#id73">January</textPath></text><line stroke="#e1ed5e" stroke-width="0.3" x1="143.23703022742887" x2="145.7803849466894" y1="26.81831364943548" y2="22.513508569990506" /><path d="M 143.74570117128098 25.957352633546492 a86.0,86.0 0 0,1 28.547481713284135,27.462654790039103" fill="none" id="id74" stroke="none" /><text fill="#e1ed5e" style="font-size:6.75px; font-family:Arial;" text-anchor="middle"><textPath startOffset="19.985693538727396" xlink:href="#id74">February</textPath></text><line stroke="#e1ed5e" stroke-width="0.3" x1="172.23445277983987" x2="176.4835382374775" y1="55.19839476539836" y2="52.563006222186495" /><path d="M 173.08426987136738 54.67131705675599 a86.0,86.0 0 0,1 12.851231095245387,41.99856678651699" fill="none" id="id75" stroke="none" /><text fill="#e1ed5e" style="font-size:6.75px; font-family:Arial;" text-anchor="middle"><textPath startOffset="22.20632615414155" xlink:href="#id75">March</textPath></text><line stroke="#e1ed5e" stroke-width="0.3" x1="184.98032266829074" x2="189.97916517819016" y1="98.17113171792111" y2="98.06355123074" /><path d="M 185.9800911702706 98.14961562048488 a86.0,86.0 0 0,1 -9.607161424134198,41.387399972396054" fill="none" id="id76" stroke="none" /><text fill="#e1ed5e" style="font-size:6.75px; font-family:Arial;" text-anchor="middle"><textPath startOffset="21.466115282336823" xlink:href="#id76">April</textPath></text><path d="M 120.23288151984713 105.62410040840565 l 17.44474113568664 4.8490856653070304 a39.10614881968564,39.10614881968564 0 0,0 -0.18586102834440954,0.6470066223430996 l -17.358687470456132 -5.148649763154713" fill="#ff910d" stroke="none" /><path d="M 119.9155931802556 106.66101706037122 l 8.63227886188874 2.8871726916940776 a30.102307647024197,30.102307647024197 0 0,0 -0.16858606614560692,0.4899900216074554 l -8.581301964799902 -3.0353354163908333" fill="#ff0000" stroke="none" /><path d="M 119.79798401119884 107.00284435728193 l 17.056312286471446 6.033073881855421 a39.091870253723435,39.091870253723435 0 0,0 -0.2298522651555379,0.6324547160882394 l -16.949935760310684 -6.325776394949791" fill="#ff900d" stroke="none" /><path d="M 119.54520255179757 107.68017299344265 l 17.03787764800351 6.694934341611216 a39.30604874315653,39.30604874315653 0 0,0 -0.25286402043199774,0.6275877614848366 l -16.92011101331412 -6.987221470938866" fill="#ff940d" stroke="none" /><path d="M 119.26925614724726 108.34839909993367 l 18.979031906046753 8.222659539698315 a41.68370812974628,41.68370812974628 0 0,0 -0.29091043085113505,0.6559262234584732 l -18.834680390464346 -8.548134099649475" fill="#ffb711" stroke="none" /><path d="M 119.12269723197855 108.67885076344098 l 8.271211030617573 3.7538954519246746 a30.083207747100722,30.083207747100722 0 0,0 -0.2180679917137791,0.46969905391220695 l -8.205368422063962 -3.895714573115712" fill="#ff0000" stroke="none" /><path d="M 118.97047184881838 109.00673069616215 l 16.285100882334085 7.731780167405368 a39.02733855301113,39.02733855301113 0 0,0 -0.29334944255180073,0.6043867388914955 l -16.14959818316757 -8.010955862262138" fill="#ff8f0d" stroke="none" /><line stroke="#e1ed5e" stroke-width="0.3" x1="174.80103733775053" x2="179.2010983576182" y1="140.37084112569926" y2="142.7455964860345" /><path d="M 175.68104954172406 140.8457921977663 a86.0,86.0 0 0,1 -30.038265399797805,32.042727171017184" fill="none" id="id77" stroke="none" /><text fill="#e1ed5e" style="font-size:6.75px; font-family:Arial;" text-anchor="middle"><textPath startOffset="22.206326154141568" xlink:href="#id77">May</textPath></text><path d="M 117.94076556474637 110.91462005526583 l 18.80453521901892 11.440111431741906 a43.01105845646671,43.01105845646671 0 0,0 -0.3902441676792951,0.6291978547471072 l -18.604826411671663 -11.762105617854287" fill="#ffcb12" stroke="none" /><path d="M 117.75023020441432 111.22182372390056 l 12.165182496191914 7.690916228646764 a35.39242361806087,35.39242361806087 0 0,0 -0.3299840198912161,0.5121425268551675 l -12.030993612923647 -7.899180355423384" fill="#ff5708" stroke="none" /><path d="M 117.55443506779139 111.5257021239791 l 15.067186463393098 9.892651193438152 a39.02455701418732,39.02455701418732 0 0,0 -0.37351498917018644,0.5583542296301974 l -14.894668368812189 -10.150542337274155" fill="#ff8f0d" stroke="none" /><path d="M 117.14729908036423 112.12312394758627 l 25.974872390703865 18.36420978250941 a52.81097604050156,52.81097604050156 0 0,0 -0.531178348767705,0.737760268267078 l -25.654914249560555 -18.808603656227618" fill="#acff20" stroke="none" /><path d="M 116.93607887273984 112.41649034213515 l 14.631408246836187 10.726847728673109 a39.14230882439513,39.14230882439513 0 0,0 -0.40305158470555824,0.5399534634617217 l -14.444595395435536 -10.977114071644145" fill="#ff910d" stroke="none" /><path d="M 115.80600337817218 113.82643327865902 l 33.44369616295534 29.255152142218513 a65.43359922293519,65.43359922293519 0 0,0 -0.7488755480423733,0.8413696170007842 l -32.93516176526463 -29.826495928960167" fill="#32ff4e" stroke="none" /><path d="M 115.32070863581623 114.36230785411682 l 17.360057569228605 16.274083471020116 a44.79532289397775,44.79532289397775 0 0,0 -0.5321971233767301,0.5580065561644414 l -17.07735389447291 -16.570497143767064" fill="#ffe515" stroke="none" /><path d="M 115.07121518719521 114.62390073753431 l 13.883759226369746 13.471688531310976 a40.34541708365221,40.34541708365221 0 0,0 -0.487909376401811,0.4942496223373533 l -13.6498092249124 -13.708678647628993" fill="#ffa30f" stroke="none" /><path d="M 114.55890576462653 115.13401014063108 l 12.79164470106852 13.29693891498904 a39.45087419791605,39.45087419791605 0 0,0 -0.4934443311308969,0.466582414326494 l -12.560864535546814 -13.515155966061455" fill="#ff960d" stroke="none" /><path d="M 114.29624159901734 115.38237550388516 l 16.509773113802495 17.764076506507372 a45.251495261082006,45.251495261082006 0 0,0 -0.5751259272609932,0.5253638984487978 l -16.20154763707464 -18.045633171542754" fill="#ffeb16" stroke="none" /><path d="M 113.75828350139079 115.86535959552629 l 26.74373165121703 30.83952438761164 a61.820380290810625,61.820380290810625 0 0,0 -0.8099486128160897,0.6902557793017686 l -26.208917561823892 -31.295304557136355" fill="#3fff2d" stroke="none" /><path d="M 113.20401910651253 116.32954008644616 l 14.97374009908052 18.51817141580487 a44.81460822982281,44.81460822982281 0 0,0 -0.6040209083932705,0.47987074038256783 l -14.652761697969897 -18.773176070192562" fill="#ffe515" stroke="none" /><path d="M 112.63410532772338 116.77436683061366 l 14.597311569146733 19.380925886720558 a45.26317772414199,45.26317772414199 0 0,0 -0.6263885587262527,0.4633872809102015 l -14.261538040001916 -19.62932311637053" fill="#ffeb16" stroke="none" /><path d="M 112.04921762599082 117.19931262002967 l 22.381774626942402 31.948226909726465 a60.00811502913994,60.00811502913994 0 0,0 -0.8510954251517818,0.5853911941218208 l -21.82852231716774 -32.328758893213376" fill="#54ff2b" stroke="none" /><path d="M 111.45004920935366 117.60387380957326 l 13.870285077435456 21.32486452604196 a46.43884146700418,46.43884146700418 0 0,0 -0.6738457184216092,0.4300802194033761 l -13.501157556966916 -21.560459174269145" fill="#fffc17" stroke="none" /><path d="M 111.1453310114006 117.79835938074945 l 11.277438646600784 18.009326571031075 a42.248916818743744,42.248916818743744 0 0,0 -0.6196926266906089,0.38066582505308694 l -10.965766819977866 -18.200780862912538" fill="#ffc011" stroke="none" /><line stroke="#e1ed5e" stroke-width="0.3" x1="143.8653032363475" x2="146.44561519142675" y1="172.8068346515853" y2="177.08958963109032" /><path d="M 144.38136562736335 173.6633856474863 a86.0,86.0 0 0,1 -40.68145358897372,12.25698825130547" fill="none" id="id78" stroke="none" /><text fill="#e1ed5e" style="font-size:6.75px; font-family:Arial;" text-anchor="middle"><textPath startOffset="21.466115282336833" xlink:href="#id78">June</textPath></text><path d="M 110.8373102113329 117.98757091392108 l 10.269861835076359 17.04573039179315 a40.900426796962385,40.900426796962385 0 0,0 -0.6061679479936387,0.35813470824859184 l -9.974926016054336 -17.21998367233549" fill="#ffac0f" stroke="none" /><path d="M 110.21172684928248 118.3499491758327 l 19.21844949126606 34.53456762093268 a60.52195796785777,60.52195796785777 0 0,0 -0.9146804209544063,0.4987566952447634 l -18.621146258443005 -34.86026496793721" fill="#4eff2b" stroke="none" /><path d="M 109.57404056367764 118.69057910512821 l 11.249004503700322 21.960467697203047 a45.67391829045741,45.67391829045741 0 0,0 -0.7028261055418192,0.35241159974928243 l -10.869324490475742 -22.150847137861632" fill="#fff116" stroke="none" /><path d="M 109.2508944713604 118.85261126421891 l 10.829133991153533 22.06894199208549 a45.58268381703656,45.58268381703656 0 0,0 -0.7073723435487149,0.3395817118499086 l -10.447648979604585 -22.25207798043496" fill="#fff016" stroke="none" /><path d="M 108.92500713936063 119.00905698771935 l 10.386492163744126 22.12182224173062 a45.43878554188497,45.43878554188497 0 0,0 -0.7108616801890415,0.3263217318111132 l -10.004162487787665 -22.297331043875808" fill="#ffee16" stroke="none" /><path d="M 108.2653958097858 119.30500536409082 l 9.724332808435461 22.712559851857346 a45.70674044857833,45.70674044857833 0 0,0 -0.7259286872829852,0.30343825015884757 l -9.331932661655015 -22.876583145036168" fill="#fff216" stroke="none" /><path d="M 107.93186726928326 119.44442032107085 l 9.357847692763816 22.940112039356492 a45.77535173956555,45.77535173956555 0 0,0 -0.7321417088614458,0.2913342956388133 l -8.961584907860503 -23.097793179401375" fill="#fff316" stroke="none" /><path d="M 107.2578585660854 119.70592522655815 l 14.041501719060891 38.1243007734226 a61.62789780420322,61.62789780420322 0 0,0 -0.9986080067752416,0.358065302458518 l -13.383174151655915 -38.360353616921074" fill="#41ff2d" stroke="none" /><path d="M 106.57524785965236 119.94407469862006 l 7.7014240464578965 23.35999794180015 a45.596776947077174,45.596776947077174 0 0,0 -0.7475236683584833,0.23933347258898247 l -7.2981790330084735 -23.489104261048837" fill="#fff016" stroke="none" /><path d="M 106.2309692047433 120.05430185196036 l 7.270778467894307 23.400915861193567 a45.5044298581268,45.5044298581268 0 0,0 -0.7500105689393418,0.22597203199091206 l -6.86689292451472 -23.522603262290204" fill="#ffef16" stroke="none" /><path d="M 105.88484417918355 120.15858648285463 l 6.86481433117422 23.515483022171466 a45.49701242126332,45.49701242126332 0 0,0 -0.7536663126531007,0.212993628125085 l -6.459016850416513 -23.630165443635068" fill="#ffef16" stroke="none" /><path d="M 105.18746579009965 120.34920634021253 l 6.012186428589832 23.58439113462561 a45.33865014422794,45.33865014422794 0 0,0 -0.7579040098718074,0.1862743659135434 l -5.605329133974814 -23.684386758853183" fill="#ffec16" stroke="none" /><path d="M 104.83641907484287 120.43548508189849 l 9.149493019737983 38.6596622869917 a60.72760640489787,60.72760640489787 0 0,0 -1.0192979825394035,0.23198890227664953 l -8.482674887805718 -38.81142792284603" fill="#4cff2c" stroke="none" /><path d="M 104.13013068566511 120.58985236759428 l 4.8576872326589395 24.216924494796785 a45.69932301171484,45.69932301171484 0 0,0 -0.7726066505384439,0.148071903395019 l -4.440112967548791 -24.29695359654027" fill="#fff216" stroke="none" /><path d="M 103.7750983002368 120.6578951692458 l 4.34907458415608 23.79877812376218 a45.19289750986049,45.19289750986049 0 0,0 -0.7664522347759545,0.13325754545547816 l -3.938773377908076 -23.870114247738666" fill="#ffea16" stroke="none" /><path d="M 103.41894727170886 120.7198165907248 l 4.02167585516815 24.37252741390806 a45.70210455053865,45.70210455053865 0 0,0 -0.7772929858603046,0.12139717855374219 l -3.6015470056993277 -24.438142899808906" fill="#fff216" stroke="none" /><path d="M 103.06178313531738 120.77559828337769 l 3.535983715214151 23.993266001264217 a45.25242244068994,45.25242244068994 0 0,0 -0.7715999359784065,0.10693672029197811 l -3.1224551880489138 -24.050577287048796" fill="#ffeb16" stroke="none" /><path d="M 102.34483914955558 120.86867818915974 l 3.8719454962638635 34.45967052486788 a55.67651733678696,55.67651733678696 0 0,0 -0.9533076556586492,0.09881423634885553 l -3.278205243999612 -34.521214129672494" fill="#88ff25" stroke="none" /><path d="M 101.26447882468166 120.96189622390904 l 1.425123538377165 23.62498377561434 a44.66792841584741,44.66792841584741 0 0,0 -0.7678883389225475,0.03969105598913551 l -1.018247131041138 -23.646014638365678" fill="#ffe315" stroke="none" /><path d="M 100.90346689309514 120.98055641714683 l 0.8206832221054099 19.05813126477802 a40.07579325366457,40.07579325366457 0 0,0 -0.6894556425258704,0.023746246366168528 l -0.4925072279048872 -19.069434309570283" fill="#ff9f0e" stroke="none" /><line stroke="#e1ed5e" stroke-width="0.3" x1="102.19456741930631" x2="102.32365962044197" y1="184.97166512339345" y2="189.96999836594603" /><path d="M 102.22038585953345 185.97133177190398 a86.0,86.0 0 0,1 -42.740103519485714,-10.115201625700543" fill="none" id="id79" stroke="none" /><text fill="#e1ed5e" style="font-size:6.75px; font-family:Arial;" text-anchor="middle"><textPath startOffset="22.20632615414155" xlink:href="#id79">July</textPath></text><path d="M 100.54218724476979 120.99299961872073 l 0.6149709431044507 23.811118573247718 a44.819058691940896,44.819058691940896 0 0,0 -0.7714006891587539,0.013280362430346616 l -0.20501056405302878 -23.81817641295722" fill="#ffe515" stroke="none" /><path d="M 99.81925306533755 120.99922214144158 l -0.3495868311643022 40.615081738738795 a61.6165862129864,61.6165862129864 0 0,0 -1.0605103823131887,-0.018257647985282167 l 1.048656903370159 -40.60304661347435" fill="#42ff2d" stroke="none" /><path d="M 99.09653310690486 120.98055641714683 l -0.9726855301716463 22.587970625017295 a43.6089038676635,43.6089038676635 0 0,0 -0.749682600935032,-0.03875002728853153 l 1.3613561995201673 -22.567880790966562" fill="#ffd413" stroke="none" /><path d="M 98.73552117531835 120.96189622390904 l -1.4433459682518803 23.927066085357843 a44.97055983987755,44.97055983987755 0 0,0 -0.7722885022323506,-0.05326153672605794 l 1.8549972312631609 -23.898676204115503" fill="#ffe715" stroke="none" /><path d="M 98.37488393609728 120.93702456842531 l -1.8518401799822526 23.85800264134644 a44.92976393712839,44.92976393712839 0 0,0 -0.7705576087851406,-0.06648695282330516 l 2.262242106508935 -23.822591436244473" fill="#ffe715" stroke="none" /><path d="M 97.2962882734958 120.8252237178851 l -4.094936701168007 31.541074470488606 a52.805783834697124,52.805783834697124 0 0,0 -0.9003924481511267,-0.12478618891906784 l 4.637257740505964 -31.465913716076933" fill="#acff20" stroke="none" /><path d="M 96.58105272829116 120.7198165907248 l -4.093075840135384 24.805232125485126 a46.14066050509213,46.14066050509213 0 0,0 -0.7825258902784535,-0.13605215649785588 l 4.519450701885887 -24.731101390466264" fill="#fff817" stroke="none" /><path d="M 96.22490169976321 120.6578951692458 l -4.513417033854368 24.698084268323154 a46.107096603284866,46.107096603284866 0 0,0 -0.7795005948684535,-0.14939314423358718 l 4.937885243294517 -24.616733925741098" fill="#fff717" stroke="none" /><path d="M 95.86986931433489 120.58985236759428 l -4.845615590312241 24.156743993822456 a45.637943721669515,45.637943721669515 0 0,0 -0.7689092462634183,-0.16113240851907112 l 5.260716298005047 -24.069755604576844" fill="#fff116" stroke="none" /><path d="M 95.16358092515715 120.4354850818985 l -5.425532898867758 22.924687646048163 a44.557964914346265,44.557964914346265 0 0,0 -0.7448536772242156,-0.18306691166178085 l 5.819339860835184 -22.827899476072353" fill="#ffe115" stroke="none" /><path d="M 94.81253420990036 120.34920634021253 l -9.262864975076136 36.336037345844616 a58.4981103196562,58.4981103196562 0 0,0 -0.9736023159136994,-0.2571372205665567 l 9.886957733801324 -36.17120877597448" fill="#66ff29" stroke="none" /><path d="M 94.11515582081647 120.15858648285463 l -6.769926545180302 23.190444060750735 a45.158406428445275,45.158406428445275 0 0,0 -0.7443073609182566,-0.22425370219828786 l 7.168108880538804 -23.070474989446723" fill="#ffea16" stroke="none" /><path d="M 93.76903079525671 120.05430185196036 l -7.741815090268525 24.916941747058935 a47.09194678283393,47.09194678283393 0 0,0 -0.7720358140687182,-0.24718148757735112 l 8.169572249428183 -24.779987412821878" fill="#f9ff18" stroke="none" /><path d="M 93.42475214034765 119.94407469862007 l -7.740615419024538 23.478873409112527 a45.721946194148465,45.721946194148465 0 0,0 -0.7453336214891731,-0.2528576316282445 l 8.143618773450937 -23.34215279058616" fill="#fff216" stroke="none" /><path d="M 92.7421414339146 119.70592522655815 l -9.336796890564708 25.350483163281837 a48.01523223641608,48.01523223641608 0 0,0 -0.7731133274401484,-0.29232530776010435 l 9.77178043876514 -25.186009605415098" fill="#ecff1a" stroke="none" /><path d="M 92.40401165467489 119.57807347666478 l -14.989388681004646 38.633992000212295 a62.439921704833104,62.439921704833104 0 0,0 -0.9986787482976177,-0.3973948843280514 l 15.652188505344121 -38.37025027147818" fill="#38ff2e" stroke="none" /><path d="M 91.7346041902142 119.30500536409082 l -9.785275931127845 22.85490116708972 a45.86157944310355,45.86157944310355 0 0,0 -0.7230390848168111,-0.31695908662365724 l 10.1772356906024 -22.683077527171612" fill="#fff417" stroke="none" /><path d="M 91.40352486487194 119.15986991738527 l -10.937695052794481 24.37799343491605 a47.71927650556307,47.71927650556307 0 0,0 -0.7465385500429205,-0.34269923292106386 l 11.35570159860482 -24.18610713166091" fill="#f0ff19" stroke="none" /><path d="M 91.07499286063937 119.00905698771935 l -10.586906832214675 22.548678354520728 a45.910349090480956,45.910349090480956 0 0,0 -0.7124571988702073,-0.34202275141037863 l 10.973476699085124 -22.36310132661079" fill="#fff517" stroke="none" /><path d="M 90.42595943632237 118.69057910512821 l -11.546928671708791 22.542079524775353 a46.32739447813033,46.32739447813033 0 0,0 -0.7066231387423303,-0.36967182911798185 l 11.933242712977616 -22.339978276712653" fill="#fffa17" stroke="none" /><path d="M 90.10565033884886 118.52300852407294 l -18.79850715040865 35.19229864637251 a60.89839288867958,60.89839288867958 0 0,0 -0.9203695569870429,-0.5018588658186952 l 19.401499519264334 -34.86349912879405" fill="#4aff2c" stroke="none" /><line stroke="#e1ed5e" stroke-width="0.3" x1="58.666819895761336" x2="56.23545636021788" y1="174.27360380694188" y2="178.64263932499728" /><path d="M 58.180547188652646 175.14741091055294 a86.0,86.0 0 0,1 -31.652253787137756,-30.449443065178592" fill="none" id="id80" stroke="none" /><text fill="#e1ed5e" style="font-size:6.75px; font-family:Arial;" text-anchor="middle"><textPath startOffset="22.20632615414155" xlink:href="#id80">August</textPath></text><path d="M 89.4739219176387 118.17145234162733 l -12.500236683797374 21.579495552034725 a45.93853535056219,45.93853535056219 0 0,0 -0.6808356266187333,-0.4022496889045445 l 12.869840181444488 -21.361127290836432" fill="#fff517" stroke="none" /><path d="M 89.1626897886671 117.98757091392108 l -13.69474405518638 22.73028777777939 a47.536992994642965,47.536992994642965 0 0,0 -0.6972563150010553,-0.42831177747071636 l 14.083979570119743 -22.491187533480296" fill="#f3ff19" stroke="none" /><path d="M 88.8546689885994 117.79835938074946 l -14.013119750891436 22.37802907035432 a47.403479131100255,47.403479131100255 0 0,0 -0.6878429875016733,-0.4390139387881386 l 14.396244540440032 -22.133500702742378" fill="#f5ff19" stroke="none" /><path d="M 88.24862548938628 117.40417183066458 l -14.016144621454186 20.758370791000697 a46.04720080061223,46.04720080061223 0 0,0 -0.6530877019452233,-0.4491996765695288 l 14.371389208022299 -20.51403032506607" fill="#fff617" stroke="none" /><path d="M 87.95078237400918 117.19931262002967 l -24.53367396012952 35.01989434135154 a63.75855654323895,63.75855654323895 0 0,0 -0.8934476574512744,-0.6374511810848961 l 25.132848945429682 -34.592398898422424" fill="#30ff37" stroke="none" /><path d="M 87.36589467227662 116.77436683061367 l -15.070449033338832 20.00911293913093 a46.04961146759287,46.04961146759287 0 0,0 -0.6290624092423467,-0.4823382308097984 l 15.412640171074665 -19.746735366493763" fill="#fff617" stroke="none" /><path d="M 87.07902340077011 116.55440617244103 l -17.1199707223569 21.93417400160656 a48.82447459822217,48.82447459822217 0 0,0 -0.6580667479542125,-0.522808023983721 l 17.49499496302847 -21.636232063617708" fill="#e1ff1b" stroke="none" /><path d="M 86.79598089348748 116.32954008644616 l -16.35714228927393 20.229038488793183 a47.014805439453696,47.014805439453696 0 0,0 -0.6249160285148179,-0.5142633474010707 l 16.702928446333438 -19.94448002253493" fill="#faff18" stroke="none" /><path d="M 86.24171649860922 115.8653595955263 l -17.633475309288247 20.33403561370226 a47.91491140283746,47.91491140283746 0 0,0 -0.6184620545496397,-0.5457208557899903 l 17.980879716744475 -20.02749161613998" fill="#eeff19" stroke="none" /><path d="M 85.97065885151581 115.62618273729859 l -25.075785205484436 27.92995036295661 a58.53501206805204,58.53501206805204 0 0,0 -0.7439533853774377,-0.6795837785777693 l 25.55283814032873 -27.494173817792266" fill="#65ff29" stroke="none" /><path d="M 85.44109423537348 115.13401014063109 l -17.366039693565195 18.05203118105077 a46.04905515982811,46.04905515982811 0 0,0 -0.5665131235043462,-0.5544523265559738 l 17.674202769445337 -17.750428751572223" fill="#fff617" stroke="none" /><path d="M 85.18274418774928 114.88116024355367 l -20.949010820232612 21.039360520594748 a50.69033084123153,50.69033084123153 0 0,0 -0.6130135588651136,-0.6209794986748525 l 21.308065004153256 -20.675640527939233" fill="#c8ff1d" stroke="none" /><path d="M 84.9287848128048 114.62390073753433 l -18.951829074713473 18.389337803284686 a47.407187849531994,47.407187849531994 0 0,0 -0.5632277517145391,-0.5905420459178161 l 19.26556337780697 -18.060388640784367" fill="#f5ff19" stroke="none" /><path d="M 84.43433777217949 114.09645910891817 l -18.568285527291998 16.81567246078154 a46.05090951904398,46.05090951904398 0 0,0 -0.5270442175498723,-0.5921397655746758 l 18.85498859449021 -16.493558525466" fill="#fff617" stroke="none" /><path d="M 84.19399662182784 113.82643327865904 l -28.3433360512651 24.79356959701894 a58.65721434037794,58.65721434037794 0 0,0 -0.6582386631915426,-0.7656802738137278 l 28.765917224027422 -24.302012224043683" fill="#64ff29" stroke="none" /><path d="M 83.72743513129214 113.27417163493432 l -19.422183166925578 15.84343924654912 a46.064631777241416,46.064631777241416 0 0,0 -0.49592324441060676,-0.6187404990869634 l 19.692024323391045 -15.506770913883898" fill="#fff717" stroke="none" /><path d="M 83.50135304334701 112.99209946851258 l -19.09892967665648 15.039729909560169 a45.30972214046035,45.30972214046035 0 0,0 -0.4772476976768275,-0.6169069828843614 l 19.354984191551374 -14.708744932562555" fill="#ffec16" stroke="none" /><path d="M 83.28015986056508 112.70617746262583 l -21.84391453596705 16.60019786420098 a48.435800906575615,48.435800906575615 0 0,0 -0.49874743974509345,-0.6681536996803019 l 22.126423242407228 -16.22173128501137" fill="#e6ff1a" stroke="none" /><path d="M 82.85270091963577 112.12312394758628 l -21.841986698128284 15.442263575268294 a47.74950256078178,47.74950256078178 0 0,0 -0.4687161495875677,-0.675220571983227 l 22.104563754877987 -15.064001741098055" fill="#f0ff19" stroke="none" /><path d="M 82.6465618267979 111.8261652097733 l -33.832615300390984 23.056531738995346 a61.94202625537175,61.94202625537175 0 0,0 -0.5928645200903203,-0.8862520166206218 l 34.22448292589203 -22.470742808168904" fill="#3eff2d" stroke="none" /><path d="M 82.24976979558568 111.22182372390057 l -21.999648063500192 13.908336382874275 a47.02741508212162,47.02741508212162 0 0,0 -0.4266850227693642,-0.6879521161731555 l 22.235797725937513 -13.527587935335855" fill="#faff18" stroke="none" /><path d="M 82.05923443525364 110.91462005526583 l -24.997093515013237 15.207476917174466 a50.2595631953847,50.2595631953847 0 0,0 -0.4432872515637395,-0.7429749314559 l 25.25516164227521 -14.774939891832455" fill="#ceff1d" stroke="none" /><line stroke="#e1ed5e" stroke-width="0.3" x1="26.63291911575756" x2="22.317208475507996" y1="142.92168965132927" y2="145.44649492493687" /><path d="M 25.769776987707644 143.4266507060508 a86.0,86.0 0 0,1 -11.730757126820373,-40.83630448921669" fill="none" id="id81" stroke="none" /><text fill="#e1ed5e" style="font-size:6.75px; font-family:Arial;" text-anchor="middle"><textPath startOffset="21.46611528233685" xlink:href="#id81">September</textPath></text><path d="M 81.87401531095188 110.60418214915194 l -21.94325069402846 12.837384081239783 a46.42252310590452,46.42252310590452 0 0,0 -0.3975713387698606,-0.6931991405331355 l 22.160974028950697 -12.45776509484834" fill="#fffc17" stroke="none" /><path d="M 81.51974371655577 109.97397251340807 l -22.878006798555496 12.347480872047074 a46.99737446282451,46.99737446282451 0 0,0 -0.37809945407190443,-0.71522167660445 l 23.087158760852287 -11.951844180356497" fill="#faff18" stroke="none" /><path d="M 81.35079622478065 109.6543875284942 l -34.93456854951957 18.085054299528146 a60.33819096956497,60.33819096956497 0 0,0 -0.46954987766364653,-0.9264664548388243 l 35.24069709696948 -17.481033632986637" fill="#50ff2b" stroke="none" /><path d="M 81.02952815118164 109.00673069616217 l -24.155607587563505 11.468510328956711 a47.73985989285924,47.73985989285924 0 0,0 -0.34605802210492803,-0.7453781928470908 l 24.34944022650826 -11.051012068830792" fill="#f0ff19" stroke="none" /><path d="M 80.87730276802145 108.67885076344099 l -20.740252047580473 9.41297925357983 a43.77635250485666,43.77635250485666 0 0,0 -0.3055149875015672,-0.6888556432148583 l 20.89920811981332 -9.054575273872274" fill="#ffd614" stroke="none" /><path d="M 80.73074385275274 108.34839909993369 l -25.360959176737296 10.9876275008558 a48.63885324071349,48.63885324071349 0 0,0 -0.32622546451837586,-0.7711006326770774 l 25.54633562244798 -10.549452342512563" fill="#e4ff1a" stroke="none" /><path d="M 80.45479744820244 107.68017299344265 l -21.754062421039542 8.548131556117731 a44.37327073644552,44.37327073644552 0 0,0 -0.2732246542556357,-0.7133033553883759 l 21.897981354888685 -8.172404633896198" fill="#ffdf14" stroke="none" /><path d="M 80.32549172779594 107.34259656027581 l -43.521814472417574 16.242496169198333 a67.4539235886266,67.4539235886266 0 0,0 -0.3966153839620378,-1.0913151971341393 l 43.79495411738484 -15.490933175058077" fill="#35ff69" stroke="none" /><path d="M 80.0844068197444 106.66101706037122 l -24.09497191511021 8.058862095798984 a46.4069464884912,46.4069464884912 0 0,0 -0.246857882354225,-0.7597504405435471 l 24.230122048480684 -7.642912755277634" fill="#fffb17" stroke="none" /><path d="M 79.97269907076064 106.31721596034903 l -19.661464025822447 6.201819945013989 a41.61639489021016,41.61639489021016 0 0,0 -0.20961430496175776,-0.6850316768175445 l 19.765305103290338 -5.862461295644397" fill="#ffb610" stroke="none" /><path d="M 79.86692584326677 105.97154293290107 l -20.44833863696464 6.065051523008315 a42.32883970094778,42.32883970094778 0 0,0 -0.20117761305820903,-0.70032566307898 l 20.549708886908952 -5.712168384424739" fill="#ffc111" stroke="none" /><path d="M 79.67330655649465 105.27499134158121 l -15.723362091461723 4.0803783027242675 a37.244186731029615,37.244186731029615 0 0,0 -0.15569610491745287,-0.6219285443265307 l 15.791269510674235 -3.809121919000345" fill="#ff740a" stroke="none" /><path d="M 79.58551787078972 104.9243191809786 l -39.74947355537924 9.588246903529347 a61.88954788956261,61.88954788956261 0 0,0 -0.24089602949079295,-1.037773790211495 l 39.90863015080059 -8.902604455969279" fill="#3eff2d" stroke="none" /><path d="M 79.4281124754447 104.21870165774334 l -22.348721184178977 4.583079068247905 a43.81381056101725,43.81381056101725 0 0,0 -0.14514903511054394,-0.7401118029221875 l 22.424300152265186 -4.1977035382577625" fill="#ffd714" stroke="none" /><path d="M 79.35854240842038 103.8639653848113 l -22.941946642758673 4.294604065362584 a44.3404485783246,44.3404485783246 0 0,0 -0.13397901002718846,-0.7514254396716122 l 23.012472095125048 -3.899059874957758" fill="#ffde14" stroke="none" /><path d="M 79.23777060512086 103.15116336523772 l -21.272882214163335 3.228667106569113 a42.516500853593925,42.516500853593925 0 0,0 -0.10359033874417672,-0.7245105879051309 l 21.32530660392411 -2.8620110466835813" fill="#ffc412" stroke="none" /><path d="M 79.18660465613746 102.79330883721812 l -21.624329923737474 2.9021421482155225 a42.81820509801613,42.81820509801613 0 0,0 -0.0917502193414114,-0.7313395219970835 l 21.671081652325736 -2.52948487193103" fill="#ffc812" stroke="none" /><path d="M 79.1416061653843 102.43462659150553 l -49.91519121519421 5.826184547868577 a71.25406192971096,71.25406192971096 0 0,0 -0.1317104139434713,-1.2194748541994114 l 50.00808393063874 -4.966113371784384" fill="#3bff9a" stroke="none" /><path d="M 79.07016306316243 101.71520430193888 l -21.890573991732442 1.7939368947708607 a42.96395773238359,42.96395773238359 0 0,0 -0.05405979127093398,-0.7376029011877144 l 21.91821034166771 -1.4168608570863856" fill="#ffca12" stroke="none" /><path d="M 79.04373962182676 101.35467743843564 l -24.682112487500365 1.5955280339316913 a45.733628657208456,45.733628657208456 0 0,0 -0.04402112011032094,-0.7860266712856521 l 24.705919958498217 -1.1704296463106016" fill="#fff216" stroke="none" /><path d="M 79.0235259727143 100.99374915477108 l -25.258270393089656 1.1965969505390763 a46.28659857538117,46.28659857538117 0 0,0 -0.030853031315618142,-0.7961796458932 l 25.275125557256477 -0.7616400576318795" fill="#fffa17" stroke="none" /><line stroke="#e1ed5e" stroke-width="0.3" x1="15.007084014347285" x2="10.007500721073583" y1="101.09737516637583" y2="101.16192664675087" /><path d="M 14.007167355692545 101.11028546245083 a86.0,86.0 0 0,1 10.666146001902534,-42.60595125391555" fill="none" id="id82" stroke="none" /><text fill="#e1ed5e" style="font-size:6.75px; font-family:Arial;" text-anchor="middle"><textPath startOffset="22.20632615414155" xlink:href="#id82">October</textPath></text><path d="M 79.00175016825051 100.2711162175752 l -21.502284468171226 0.2776239963305049 a42.504076646847594,42.504076646847594 0 0,0 -0.0031487479641272606,-0.7316581355019006 l 21.503877513424857 0.09254361737507104" fill="#ffc412" stroke="none" /><path d="M 79.00486145842228 99.54816195383935 l -21.629800556124135 -0.4654966578462604 a42.63480897156649,42.63480897156649 0 0,0 0.02210575366226767,-0.7335823447742689 l 21.618583108006224 0.8377491500455236" fill="#ffc512" stroke="none" /><path d="M 79.01574976396665 99.18683210126434 l -62.95275070810006 -2.4395036962069616 a84.0,84.0 0 0,0 0.06842556706600478,-1.4443555735079636 l 62.90143153280056 3.522770376337934" fill="#4dd2ff" stroke="none" /><path d="M 79.05617556472873 98.46500227214037 l -21.533474405022748 -1.5782138733443487 a42.59123152999352,42.59123152999352 0 0,0 0.059882290270779515,-0.7307156175827584 l 21.503117630932472 1.9486434081348853" fill="#ffc512" stroke="none" /><path d="M 79.12142395522702 97.74499172005258 l -21.51432358460691 -2.3236727311632244 a42.639444869606166,42.639444869606166 0 0,0 0.08509543250514887,-0.7290456987992353 l 21.471137799098173 2.6936621682873216" fill="#ffc612" stroke="none" /><path d="M 79.26566170972629 96.67025291283419 l -21.32999126523419 -3.425403564385857 a42.603284864896686,42.603284864896686 0 0,0 0.12251109838641751,-0.7230674376323033 l 21.26786830532755 3.792056790333988" fill="#ffc512" stroke="none" /><path d="M 79.32604984820605 96.31383870115002 l -21.497889885282163 -3.8330695933882435 a42.83693412609642,42.83693412609642 0 0,0 0.1356794125389642,-0.7248048471092243 l 21.428724748833336 4.20255251796004" fill="#ffc812" stroke="none" /><path d="M 79.3925641242962 95.95851677861259 l -14.783381685801373 -2.899283025743816 a36.06499970565727,36.06499970565727 0 0,0 0.12471741292620689,-0.6081663979158555 l 14.731284976960172 3.153325079823074" fill="#ff6109" stroke="none" /><path d="M 79.54389044137918 95.25157060432595 l -14.792595927039525 -3.4337710764107987 a36.185903926532056,36.185903926532056 0 0,0 0.14606560694682427,-0.6055362402636946 l 14.731297519831886 3.68789254833389" fill="#ff6309" stroke="none" /><path d="M 79.62865764111835 94.90015583598534 l -56.066642353787515 -14.035949804711695 a78.79685347618766,78.79685347618766 0 0,0 0.3407163491769411,-1.3129190803247857 l 55.816729672740266 14.998965310585344" fill="#46fff4" stroke="none" /><path d="M 79.81627453868168 94.20196356495316 l -14.603466590251713 -4.195034832917232 a36.19406310708189,36.19406310708189 0 0,0 0.1771683927130832,-0.5973237451026586 l 14.529092300426923 4.44578796476643" fill="#ff6409" stroke="none" /><path d="M 79.91906864156998 93.8553929516997 l -14.707831149040247 -4.5004806465644505 a36.380982516041676,36.380982516041676 0 0,0 0.18839201636878028,-0.5972541746499472 l 14.628183648903264 4.752984987640812" fill="#ff6609" stroke="none" /><path d="M 80.02781315780177 93.51064311812611 l -14.280225286864733 -4.639926462345553 a36.01511744275034,36.01511744275034 0 0,0 0.19664718243396181,-0.5879500457517262 l 14.198240810658998 4.885049611019602" fill="#ff6108" stroke="none" /><path d="M 80.2630227832202 92.82701384747504 l -14.21191329083101 -5.165018742046691 a36.12137222581974,36.12137222581974 0 0,0 0.21740836696992222,-0.5825463348398146 l 14.12090033535946 5.408888213915847" fill="#ff6209" stroke="none" /><path d="M 80.65960295795068 91.81776055985345 l -13.644219175373347 -5.772387610451767 a35.81503208335786,35.81503208335786 0 0,0 0.24509299226957018,-0.5657084180337235 l 13.542835473261096 6.0063951730720895" fill="#ff5e08" stroke="none" /><path d="M 80.803312248108 91.48605970444005 l -13.538428156946713 -6.004440480239176 a35.810210749396596,35.810210749396596 0 0,0 0.2547601197625681,-0.5613301541632595 l 13.433065720220794 6.2365926432445065" fill="#ff5d08" stroke="none" /><path d="M 80.95270993114464 91.15688171328213 l -13.440298016738373 -6.239950394050966 a35.81818449402484,35.81818449402484 0 0,0 0.26444361986966575,-0.5569857049766904 l 13.330896203026956 6.470378514668189" fill="#ff5e08" stroke="none" /><path d="M 81.43458229118936 90.18545643968196 l -42.23449464795733 -22.327118838467086 a68.77292929887561,68.77292929887561 0 0,0 0.5622740454113144,-1.0418084115192232 l 41.84391250332754 23.05080823331878" fill="#37ff7a" stroke="none" /><line stroke="#e1ed5e" stroke-width="0.3" x1="26.266209847984243" x2="21.928928074336255" y1="57.711370442889674" y2="55.22380399835377" /><path d="M 25.398753493254645 57.213857153982495 a86.0,86.0 0 0,1 29.58750427330803,-30.492523968695096" fill="none" id="id83" stroke="none" /><text fill="#e1ed5e" style="font-size:6.75px; font-family:Arial;" text-anchor="middle"><textPath startOffset="21.46611528233685" xlink:href="#id83">November</textPath></text><path d="M 81.78341655067845 89.55222093294921 l -20.955076315946606 -12.018390182290338 a45.15692294107259,45.15692294107259 0 0,0 0.3925218768372305,-0.6709471253506425 l 20.74509476463905 12.377316719994871" fill="#ffea16" stroke="none" /><path d="M 81.96595687620814 89.24020034530311 l -20.826150818827635 -12.425677861081356 a45.25130982516042,45.25130982516042 0 0,0 0.40485743919063494,-0.6654791799333754 l 20.609177581350785 12.782324814221806" fill="#ffeb16" stroke="none" /><path d="M 82.15384107792192 88.93136811851018 l -12.61528133445385 -7.824311426463513 a35.8447018308118,35.8447018308118 0 0,0 0.32972415307165037,-0.5215444267327196 l 12.478729585136238 8.040303500910449" fill="#ff5e08" stroke="none" /><path d="M 82.54541684631803 88.32363383020206 l -18.056970236383215 -12.079337245740957 a42.72474539353624,42.72474539353624 0 0,0 0.41417680345981733,-0.6077533523440639 l 17.846368967254655 12.388368621355438" fill="#ffc712" stroke="none" /><path d="M 82.7489923806493 88.02491185347247 l -36.3978793450289 -25.266223464794905 a65.30787366809915,65.30787366809915 0 0,0 0.6489966219988046,-0.917959696500115 l 35.95757010322622 25.889009661626805" fill="#32ff4c" stroke="none" /><path d="M 83.17141714833178 87.43820079747576 l -18.267388544528657 -13.635804563787907 a43.79545240478012,43.79545240478012 0 0,0 0.45614853093787255,-0.6002379975844583 l 18.029964073366674 13.948227337253392" fill="#ffd614" stroke="none" /><path d="M 83.39014120810768 87.1503855733568 l -19.80217450295197 -15.31923361661818 a46.036074645317015,46.036074645317015 0 0,0 0.4902752495188811,-0.6225997786578706 l 19.535545172839118 15.657825789229097" fill="#fff617" stroke="none" /><path d="M 83.84228863543731 86.58626213691792 l -17.170195962314427 -14.254277880057277 a43.315915111555896,43.315915111555896 0 0,0 0.4811972982199372,-0.5695858236514808 l 16.922288050607364 14.547722653337875" fill="#ffcf13" stroke="none" /><path d="M 84.07557802195018 86.31012108654704 l -22.59112728905236 -19.421100340836638 a50.79157885441809,50.79157885441809 0 0,0 0.5756575728132884,-0.6580761181989858 l 22.253477852661227 19.807092015238567" fill="#c7ff1e" stroke="none" /><path d="M 84.31358615837235 86.03803664274999 l -22.204027834340202 -19.763078173019174 a50.72537823041149,50.72537823041149 0 0,0 0.5861350290364657,-0.6472249386445857 l 21.860549164687693 20.142355898933317" fill="#c8ff1d" stroke="none" /><path d="M 84.80347519578584 85.50635884689758 l -16.470699777937728 -15.708881813275712 a43.760775887443344,43.760775887443344 0 0,0 0.5245786256642082,-0.5406243855099817 l 16.197856888570403 15.990070394335817" fill="#ffd614" stroke="none" /><path d="M 85.05521093208273 85.24692304244772 l -11.218357336856831 -11.074447981555567 a36.76372225819745,36.76372225819745 0 0,0 0.4484547378639184,-0.4465289307010844 l 11.0260667988256 11.26591276290676" fill="#ff6c0a" stroke="none" /><path d="M 85.31137513191541 84.99185889309783 l -15.855880693682249 -16.20078781792869 a43.66879967033614,43.66879967033614 0 0,0 0.5417359069264126,-0.5211495132464068 l 15.574661543143408 16.471320417937406" fill="#ffd513" stroke="none" /><path d="M 86.10567301691215 84.25364557470407 l -26.218538579307175 -29.713306839948558 a60.62691469947607,60.62691469947607 0 0,0 0.7884564939685713,-0.6837417019902323 l 25.70318828669183 30.16021353535847" fill="#4dff2c" stroke="none" /><path d="M 86.65592168130627 83.78471172551755 l -14.369491436566625 -17.461336814489258 a43.613725201624774,43.613725201624774 0 0,0 0.58379380619612,-0.472053991139375 l 14.066794231806004 17.706096902892767" fill="#ffd413" stroke="none" /><path d="M 86.93701828274178 83.55741782278169 l -14.069908676731826 -17.71001710409473 a43.61873197150763,43.61873197150763 0 0,0 0.5919008855764951,-0.46198802976872777 l 13.762975235995905 17.94958352308668" fill="#ffd413" stroke="none" /><path d="M 87.22198572758235 83.33499621200491 l -9.605964564678914 -12.528037020843948 a36.786901748395834,36.786901748395834 0 0,0 0.5058266367219765,-0.380978135893056 l 9.388891774198548 12.691531746242859" fill="#ff6d0a" stroke="none" /><path d="M 87.80319425747018 82.90503203632743 l -5.8865186436425825 -8.250508350701903 a31.135185730264322,31.135185730264322 0 0,0 0.4389599503814495,-0.3075194973246012 l 5.743627553677473 8.350612690790445" fill="#ff1202" stroke="none" /><path d="M 88.09926311788651 82.69761687909137 l -22.359646982556654 -32.50850618518653 a60.455757343851175,60.455757343851175 0 0,0 0.8624886236340564,-0.5823561687439793 l 21.796753664516057 32.88857426622918" fill="#4fff2b" stroke="none" /><line stroke="#e1ed5e" stroke-width="0.3" x1="56.762969772571076" x2="54.21961505331055" y1="26.818313649435495" y2="22.513508569990535" /><path d="M 56.25429882871897 25.957352633546506 a86.0,86.0 0 0,1 42.265352541879196,-11.944610805530505" fill="none" id="id84" stroke="none" /><text fill="#e1ed5e" style="font-size:6.75px; font-family:Arial;" text-anchor="middle"><textPath startOffset="22.20632615414155" xlink:href="#id84">December</textPath></text></svg>