<?xml version="1.0" encoding="utf-8" ?>
<svg baseProfile="full" height="200mm" version="1.1" viewBox="0,0,200,200" width="200mm" xmlns="http://www.w3.org/2000/svg" xmlns:ev="http://www.w3.org/2001/xml-events" xmlns:xlink="http://www.w3.org/1999/xlink"><defs /><rect fill="#1a1a1a" height="200" width="200" x="0" y="0" /><text alignment-baseline="middle" fill="#e1ed5e" style="dominant-baseline: central; font-size:9.0px; font-family:Arial;" text-anchor="middle" x="100.0" y="100.0">2022</text><line stroke="#e1ed5e" stroke-width="0.3" x1="100.0" x2="100.0" y1="15.0" y2="10.0" /><path d="M 100.0 14.0 a86.0,86.0 0 0,1 42.46469731375804,11.215312516191453" fill="none" id="id1" stroke="none" /><text fill="#e1ed5e" style="font-size:6.75px; font-family:Arial;" text-anchor="middle"><textPath startOffset="22.20632615414155" xlink:href="#id1">January</textPath></text><line stroke="#e1ed5e" stroke-width="0.3" x1="143.23703022742887" x2="145.7803849466894" y1="26.81831364943548" y2="22.513508569990506" /><path d="M 143.74570117128098 25.957352633546492 a86.0,86.0 0 0,1 28.547481713284135,27.462654790039103" fill="none" id="id2" stroke="none" /><text fill="#e1ed5e" style="font-size:6.75px; font-family:Arial;" text-anchor="middle"><textPath startOffset="19.985693538727396" xlink:href="#id2">February</textPath></text><line stroke="#e1ed5e" stroke-width="0.3" x1="172.23445277983987" x2="176.4835382374775" y1="55.19839476539836" y2="52.563006222186495" /><path d="M 173.08426987136738 54.67131705675599 a86.0,86.0 0 0,1 12.851231095245387,41.99856678651699" fill="none" id="id3" stroke="none" /><text fill="#e1ed5e" style="font-size:6.75px; font-family:Arial;" text-anchor="middle"><textPath startOffset="22.20632615414155" xlink:href="#id3">March</textPath></text><line stroke="#e1ed5e" stroke-width="0.3" x1="184.98032266829074" x2="189.97916517819016" y1="98.17113171792111" y2="98.06355123074" /><path d="M 185.9800911702706 98.14961562048488 a86.0,86.0 0 0,1 -9.607161424134198,41.387399972396054" fill="none" id="id4" stroke="none" /><text fill="#e1ed5e" style="font-size:6.75px; font-family:Arial;" text-anchor="middle"><textPath startOffset="21.466115282336823" xlink:href="#id4">April</textPath></text><line stroke="#e1ed5e" stroke-width="0.3" x1="174.80103733775053" x2="179.2010983576182" y1="140.37084112569926" y2="142.7455964860345" /><path d="M 175.68104954172406 140.8457921977663 a86.0,86.0 0 0,1 -30.038265399797805,32.042727171017184" fill="none" id="id5" stroke="none" /><text fill="#e1ed5e" style="font-size:6.75px; font-family:Arial;" text-anchor="middle"><textPath startOffset="22.206326154141568" xlink:href="#id5">May</textPath></text><path d="M 111.45004920935366 117.60387380957326 l 21.568752039489816 33.1608696339033 a60.55823984225949,60.55823984225949 0 0,0 -0.8787237007591947,0.5608430411974578 l -20.99474653668369 -33.52722710392457" fill="#ffe315" stroke="none" /><path d="M 111.1453310114006 117.79835938074945 l 17.48745746481487 27.926317513223072 a53.949816060686274,53.949816060686274 0 0,0 -0.7913174050722556,0.486091781484259 l -17.00416085981031 -28.22319776153571" fill="#ff3a05" stroke="none" /><line stroke="#e1ed5e" stroke-width="0.3" x1="143.8653032363475" x2="146.44561519142675" y1="172.8068346515853" y2="177.08958963109032" /><path d="M 144.38136562736335 173.6633856474863 a86.0,86.0 0 0,1 -40.68145358897372,12.25698825130547" fill="none" id="id6" stroke="none" /><text fill="#e1ed5e" style="font-size:6.75px; font-family:Arial;" text-anchor="middle"><textPath startOffset="21.466115282336833" xlink:href="#id6">June</textPath></text><path d="M 110.8373102113329 117.98757091392108 l 15.92504979528806 26.432108790326552 a51.85876838252075,51.85876838252075 0 0,0 -0.7685768995018075,0.4540887794888418 l -15.467705024757871 -26.70231614210914" fill="#ff0000" stroke="none" /><path d="M 110.21172684928248 118.3499491758327 l 29.8012543938343 53.55132501819159 a82.28506485800615,82.28506485800615 0 0,0 -1.24359059570666,0.6781047473443599 l -28.875040986258988 -54.05637041729572" fill="#49f1ff" stroke="none" /><path d="M 109.57404056367764 118.69057910512821 l 17.443365815983764 34.053188564943646 a59.260824121153476,59.260824121153476 0 0,0 -0.9119001782023788,0.45724568008783845 l -16.854611730098625 -34.34840208594078" fill="#ffc312" stroke="none" /><path d="M 109.2508944713604 118.85261126421891 l 16.79228998582572 34.22139516550487 a59.1193505983733,59.1193505983733 0 0,0 -0.9174403540982248,0.4404271227256514 l -16.200736963727266 -34.505376564730085" fill="#ffc011" stroke="none" /><path d="M 108.92500713936063 119.00905698771935 l 16.10590361995504 34.3033943805196 a58.89621349740294,58.89621349740294 0 0,0 -0.92139481247675,0.4229671668463414 l -15.513040811710871 -34.575548617700015" fill="#ffba11" stroke="none" /><path d="M 108.2653958097858 119.30500536409082 l 15.079120506895958 35.219426748655884 a59.311720083617075,59.311720083617075 0 0,0 -0.9420072111516156,0.39375909066042225 l -14.47064183624688 -35.47377088233628" fill="#ffc512" stroke="none" /><path d="M 107.93186726928326 119.44442032107085 l 14.510827202659948 35.57228251002298 a59.41811277351274,59.41811277351274 0 0,0 -0.9503472277138333,0.3781627748388592 l -13.896358898904248 -35.8167921292679" fill="#ffc712" stroke="none" /><path d="M 107.2578585660854 119.70592522655815 l 21.77357569825621 59.11777567967444 a84.0,84.0 0 0,0 -1.3611217574810608,0.4880498358401595 l -20.752734380145416 -59.48381305655456" fill="#4dd2ff" stroke="none" /><path d="M 106.57524785965236 119.94407469862006 l 11.942279594802256 36.22338220465728 a59.14120423197348,59.14120423197348 0 0,0 -0.9695740115564674,0.31042698036225486 l -11.316984238154848 -36.42358203167924" fill="#ffc111" stroke="none" /><path d="M 106.2309692047433 120.05430185196036 l 11.274495315628963 36.286831929135 a58.99800542233014,58.99800542233014 0 0,0 -0.9724136254656445,0.29298024852219523 l -10.648206715723074 -36.47552754676292" fill="#ffbd11" stroke="none" /><path d="M 105.88484417918355 120.15858648285463 l 10.644983527039212 36.46448648503625 a58.986503509908985,58.986503509908985 0 0,0 -0.9771221939802672,0.27614449222861115 l -10.015730164954338 -36.64231977060338" fill="#ffbd11" stroke="none" /><path d="M 105.18746579009965 120.34920634021253 l 9.322848719038904 36.57133944369861 a58.74093767971738,58.74093767971738 0 0,0 -0.9819434868365966,0.2413378184980953 l -8.691951947459096 -36.726398520510735" fill="#ffb710" stroke="none" /><path d="M 104.83641907484287 120.43548508189849 l 14.187740232620623 59.94793862626343 a82.60395537988262,82.60395537988262 0 0,0 -1.3864871358028434,0.31555995809416154 l -13.153732947424917 -60.183275317935276" fill="#4aebff" stroke="none" /><path d="M 104.13013068566511 120.58985236759428 l 7.53261458745355 37.552182751979785 a59.30021817119592,59.30021817119592 0 0,0 -1.0025475197018119,0.19214061823405953 l -6.885099453180034 -37.67628056856231" fill="#ffc412" stroke="none" /><path d="M 103.7750983002368 120.6578951692458 l 6.743929999092565 36.90378047672214 a58.51492510064173,58.51492510064173 0 0,0 -0.992388131372834,0.17253939714136152 l -6.107692896247681 -37.01439845238451" fill="#ffb110" stroke="none" /><line stroke="#e1ed5e" stroke-width="0.3" x1="102.19456741930631" x2="102.32365962044197" y1="184.97166512339345" y2="189.96999836594603" /><path d="M 102.22038585953345 185.97133177190398 a86.0,86.0 0 0,1 -42.740103519485714,-10.115201625700543" fill="none" id="id7" stroke="none" /><text fill="#e1ed5e" style="font-size:6.75px; font-family:Arial;" text-anchor="middle"><textPath startOffset="22.20632615414155" xlink:href="#id7">July</textPath></text><line stroke="#e1ed5e" stroke-width="0.3" x1="58.666819895761336" x2="56.23545636021788" y1="174.27360380694188" y2="178.64263932499728" /><path d="M 58.180547188652646 175.14741091055294 a86.0,86.0 0 0,1 -31.652253787137756,-30.449443065178592" fill="none" id="id8" stroke="none" /><text fill="#e1ed5e" style="font-size:6.75px; font-family:Arial;" text-anchor="middle"><textPath startOffset="22.20632615414155" xlink:href="#id8">August</textPath></text><line stroke="#e1ed5e" stroke-width="0.3" x1="26.63291911575756" x2="22.317208475507996" y1="142.92168965132927" y2="145.44649492493687" /><path d="M 25.769776987707644 143.4266507060508 a86.0,86.0 0 0,1 -11.730757126820373,-40.83630448921669" fill="none" id="id9" stroke="none" /><text fill="#e1ed5e" style="font-size:6.75px; font-family:Arial;" text-anchor="middle"><textPath startOffset="21.46611528233685" xlink:href="#id9">September</textPath></text><line stroke="#e1ed5e" stroke-width="0.3" x1="15.007084014347285" x2="10.007500721073583" y1="101.09737516637583" y2="101.16192664675087" /><path d="M 14.007167355692545 101.11028546245083 a86.0,86.0 0 0,1 10.666146001902534,-42.60595125391555" fill="none" id="id10" stroke="none" /><text fill="#e1ed5e" style="font-size:6.75px; font-family:Arial;" text-anchor="middle"><textPath startOffset="22.20632615414155" xlink:href="#id10">October</textPath></text><line stroke="#e1ed5e" stroke-width="0.3" x1="26.266209847984243" x2="21.928928074336255" y1="57.711370442889674" y2="55.22380399835377" /><path d="M 25.398753493254645 57.213857153982495 a86.0,86.0 0 0,1 29.58750427330803,-30.492523968695096" fill="none" id="id11" stroke="none" /><text fill="#e1ed5e" style="font-size:6.75px; font-family:Arial;" text-anchor="middle"><textPath startOffset="21.46611528233685" xlink:href="#id11">November</textPath></text><line stroke="#e1ed5e" stroke-width="0.3" x1="56.762969772571076" x2="54.21961505331055" y1="26.818313649435495" y2="22.513508569990535" /><path d="M 56.25429882871897 25.957352633546506 a86.0,86.0 0 0,1 42.265352541879196,-11.944610805530505" fill="none" id="id12" stroke="none" /><text fill="#e1ed5e" style="font-size:6.75px; font-family:Arial;" text-anchor="middle"><textPath startOffset="22.20632615414155" xlink:href="#id12">December</textPath></text></svg>