<?xml version="1.0" encoding="utf-8" ?>
<svg baseProfile="full" height="200mm" version="1.1" viewBox="0,0,200,200" width="200mm" xmlns="http://www.w3.org/2000/svg" xmlns:ev="http://www.w3.org/2001/xml-events" xmlns:xlink="http://www.w3.org/1999/xlink"><defs /><rect fill="#1a1a1a" height="200" width="200" x="0" y="0" /><text alignment-baseline="middle" fill="#e1ed5e" style="dominant-baseline: central; font-size:9.0px; font-family:Arial;" text-anchor="middle" x="100.0" y="100.0">2022</text><line stroke="#e1ed5e" stroke-width="0.3" x1="100.0" x2="100.0" y1="15.0" y2="10.0" /><path d="M 100.0 14.0 a86.0,86.0 0 0,1 42.46469731375804,11.215312516191453" fill="none" id="id73" stroke="none" /><text fill="#e1ed5e" style="font-size:6.75px; font-family:Arial;" text-anchor="middle"><textPath startOffset="22.20632615414155" xlink:href="#id73">January</textPath></text><line stroke="#e1ed5e" stroke-width="0.3" x1="143.23703022742887" x2="145.7803849466894" y1="26.81831364943548" y2="22.513508569990506" /><path d="M 143.74570117128098 25.957352633546492 a86.0,86.0 0 0,1 28.547481713284135,27.462654790039103" fill="none" id="id74" stroke="none" /><text fill="#e1ed5e" style="font-size:6.75px; font-family:Arial;" text-anchor="middle"><textPath startOffset="19.985693538727396" xlink:href="#id74">February</textPath></text><line stroke="#e1ed5e" stroke-width="0.3" x1="172.23445277983987" x2="176.4835382374775" y1="55.19839476539836" y2="52.563006222186495" /><path d="M 173.08426987136738 54.67131705675599 a86.0,86.0 0 0,1 12.851231095245387,41.99856678651699" fill="none" id="id75" stroke="none" /><text fill="#e1ed5e" style="font-size:6.75px; font-family:Arial;" text-anchor="middle"><textPath startOffset="22.20632615414155" xlink:href="#id75">March</textPath></text><line stroke="#e1ed5e" stroke-width="0.3" x1="184.98032266829074" x2="189.97916517819016" y1="98.17113171792111" y2="98.06355123074" /><path d="M 185.9800911702706 98.14961562048488 a86.0,86.0 0 0,1 -9.607161424134198,41.387399972396054" fill="none" id="id76" stroke="none" /><text fill="#e1ed5e" style="font-size:6.75px; font-family:Arial;" text-anchor="middle"><textPath startOffset="21.466115282336823" xlink:href="#id76">April</textPath></text><path d="M 120.23288151984713 105.62410040840565 l 23.65825331097185 6.576245305340306 a45.55524286261736,45.55524286261736 0 0,0 -0.21651184124434186,0.75370612305665 l -23.541548832841407 -6.982508903901538" fill="#ffcc13" stroke="none" /><path d="M 119.9155931802556 106.66101706037122 l 11.706945857037107 3.915533189133238 a33.34439068787124,33.34439068787124 0 0,0 -0.18674314673832426,0.5427629969509205 l -11.637811879355553 -4.116468889173459" fill="#ff0000" stroke="none" /><path d="M 119.79798401119884 107.00284435728193 l 23.1314728883479 8.181949450012617 a45.535878520789424,45.535878520789424 0 0,0 -0.2677417262443189,0.7367102401285429 l -22.987206901098357 -8.57890748714729" fill="#ffcc13" stroke="none" /><path d="M 119.54520255179757 107.68017299344265 l 23.106472153560354 9.079553048233194 a45.826343648208464,45.826343648208464 0 0,0 -0.2948104392864434,0.7316953330807984 l -22.946759100016518 -9.475947749156806" fill="#ffd013" stroke="none" /><path d="M 119.26925614724726 108.34839909993367 l 25.73903166219711 11.151427284988761 a49.05088378999808,49.05088378999808 0 0,0 -0.34232592005878615,0.771854578328987 l -25.543264657407054 -11.592830199810436" fill="#fdff18" stroke="none" /><path d="M 119.12269723197855 108.67885076344098 l 11.217271969175188 5.09096746198541 a33.31848773711439,33.31848773711439 0 0,0 -0.24151997914760087,0.520212548457913 l -11.127977373187756 -5.283300077722154" fill="#ff0000" stroke="none" /><path d="M 118.97047184881838 109.00673069616215 l 22.08556944882553 10.485705251941223 a45.448361755125504,45.448361755125504 0 0,0 -0.3416131378687109,0.7038242464786768 l -21.901803054342107 -10.864318454385176" fill="#ffcb12" stroke="none" /><line stroke="#e1ed5e" stroke-width="0.3" x1="174.80103733775053" x2="179.2010983576182" y1="140.37084112569926" y2="142.7455964860345" /><path d="M 175.68104954172406 140.8457921977663 a86.0,86.0 0 0,1 -30.038265399797805,32.042727171017184" fill="none" id="id77" stroke="none" /><text fill="#e1ed5e" style="font-size:6.75px; font-family:Arial;" text-anchor="middle"><textPath startOffset="22.206326154141568" xlink:href="#id77">May</textPath></text><path d="M 117.94076556474637 110.91462005526583 l 25.502382302282868 15.514879358354065 a50.85101312511975,50.85101312511975 0 0,0 -0.46137695757351616,0.7438865612299721 l -25.23154070504139 -15.951562250949312" fill="#e2ff1b" stroke="none" /><path d="M 117.75023020441432 111.22182372390056 l 16.498208074887597 10.430286291756293 a40.51875359264227,40.51875359264227 0 0,0 -0.37777975692681076,0.5863225721385245 l -16.316223454583735 -10.71273046381627" fill="#ff7c0b" stroke="none" /><path d="M 117.55443506779139 111.5257021239791 l 20.433855180882233 13.416240804666751 a45.44458948074344,45.44458948074344 0 0,0 -0.4349629219768592,0.6502105518111667 l -20.199889153494652 -13.765988270683724" fill="#ffcb12" stroke="none" /><path d="M 117.14729908036423 112.12312394758627 l 35.22666836725479 24.905220634180182 a64.14149022801303,64.14149022801303 0 0,0 -0.645141851585674,0.896045606151604 l -34.79274672329351 -25.50789984578292" fill="#33ff2f" stroke="none" /><path d="M 116.93607887273984 112.41649034213515 l 19.842860373076444 14.547563579147512 a45.60428242958422,45.60428242958422 0 0,0 -0.46959106027869335,0.6290939647176282 l -19.589508046102658 -14.886970423374455" fill="#ffcd13" stroke="none" /><path d="M 115.80600337817218 113.82643327865902 l 45.355756747790316 39.67532648654483 a81.2600713738264,81.2600713738264 0 0,0 -0.9300066205544559,1.044872297125425 l -44.666091277587526 -40.45017295341112" fill="#49f1ff" stroke="none" /><path d="M 115.32070863581623 114.36230785411682 l 23.54340693687219 22.070627827985785 a53.270801398735394,53.270801398735394 0 0,0 -0.6328912357988941,0.663583930469324 l -23.160009149694336 -22.472618875037618" fill="#c0ff1e" stroke="none" /><path d="M 115.07121518719521 114.62390073753431 l 18.828911826846042 18.270068745719122 a47.23591684230695,47.23591684230695 0 0,0 -0.5712382817238558,0.5786613634867757 l -18.51163292006665 -18.59147060318656" fill="#ffe615" stroke="none" /><path d="M 114.55890576462653 115.13401014063108 l 17.347805177959614 18.03307636751284 a46.02275340103468,46.02275340103468 0 0,0 -0.5756441962438282,0.5443075174476598 l -17.03482514732498 -18.32901852170642" fill="#ffd313" stroke="none" /><path d="M 114.29624159901734 115.38237550388516 l 22.39026600595285 24.09133036469636 a53.88945439739414,53.88945439739414 0 0,0 -0.684910459888066,0.6256494660374841 l -21.97225599659792 -24.473172597320428" fill="#b7ff1f" stroke="none" /><path d="M 113.75828350139079 115.86535959552629 l 36.26938187066676 41.82402445969525 a76.35988695152328,76.35988695152328 0 0,0 -1.0004400526208526,0.8525967169269175 l -35.544076341468866 -42.44214556684511" fill="#41ffd2" stroke="none" /><path d="M 113.20401910651253 116.32954008644616 l 20.307124853346803 25.114020712802358 a53.29695583445104,53.29695583445104 0 0,0 -0.7183478099959821,0.5706989454254605 l -19.871819550633468 -25.45985357223294" fill="#c0ff1e" stroke="none" /><path d="M 112.63410532772338 116.77436683061366 l 19.796619054184674 26.28407326097928 a53.90529794979881,53.90529794979881 0 0,0 -0.7459852265846136,0.5518620366392986 l -19.341248857181494 -26.62094524635835" fill="#b7ff1f" stroke="none" /><path d="M 112.04921762599082 117.19931262002967 l 30.35377192213312 43.32762746020338 a73.9021244491282,73.9021244491282 0 0,0 -1.0481542370912251,0.7209300418519514 l -29.60346080041901 -43.843698291420424" fill="#3effb3" stroke="none" /><path d="M 111.45004920935366 117.60387380957326 l 18.810638421344773 28.920408898885064 a55.49971258861851,55.49971258861851 0 0,0 -0.8053224955674819,0.5139949191862817 l -18.31003412373036 -29.239918246895154" fill="#a1ff22" stroke="none" /><path d="M 111.1453310114006 117.79835938074945 l 15.294265367711528 24.42393421968647 a49.8174099444338,49.8174099444338 0 0,0 -0.7307046889706981,0.44885850067740574 l -14.87158147880852 -24.683581187192253" fill="#f1ff19" stroke="none" /><line stroke="#e1ed5e" stroke-width="0.3" x1="143.8653032363475" x2="146.44561519142675" y1="172.8068346515853" y2="177.08958963109032" /><path d="M 144.38136562736335 173.6633856474863 a86.0,86.0 0 0,1 -40.68145358897372,12.25698825130547" fill="none" id="id78" stroke="none" /><text fill="#e1ed5e" style="font-size:6.75px; font-family:Arial;" text-anchor="middle"><textPath startOffset="21.466115282336833" xlink:href="#id78">June</textPath></text><path d="M 110.8373102113329 117.98757091392108 l 13.927807290065312 23.117121907564524 a47.98861132400843,47.98861132400843 0 0,0 -0.7112189366077445,0.42020068399519095 l -13.527820482429187 -23.353441163853464" fill="#fff116" stroke="none" /><path d="M 110.21172684928248 118.3499491758327 l 26.063725610600418 46.835177570478336 a74.59898926997509,74.59898926997509 0 0,0 -1.1274294024735971,0.6147644029734173 l -25.253673396258172 -47.27688262521152" fill="#3fffbc" stroke="none" /><path d="M 109.57404056367764 118.69057910512821 l 15.255703479622321 29.782402820814024 a54.462337133550484,54.462337133550484 0 0,0 -0.8380614963414726,0.42022143213688934 l -14.740788075598088 -30.040592093860216" fill="#afff20" stroke="none" /><path d="M 109.2508944713604 118.85261126421891 l 14.686282422217301 29.929513765373013 a54.33860653381874,54.33860653381874 0 0,0 -0.8432506432329195,0.4048115530090003 l -14.16891911098415 -30.177879594881574" fill="#b1ff20" stroke="none" /><path d="M 108.92500713936063 119.00905698771935 l 14.085979305224617 30.00122903655538 a54.14345420578655,54.14345420578655 0 0,0 -0.8470408345858094,0.38883490242893104 l -13.567470474871389 -30.239251009318384" fill="#b4ff20" stroke="none" /><path d="M 108.2653958097858 119.30500536409082 l 13.187970350074501 30.802377068044702 a54.506849971258866,54.506849971258866 0 0,0 -0.8656947675383249,0.3618604830409443 l -12.655804123038715 -31.02482259410562" fill="#afff20" stroke="none" /><path d="M 107.93186726928326 119.44442032107085 l 12.690949635704392 31.11097937125157 a54.599899406016476,54.599899406016476 0 0,0 -0.8732835933673886,0.3474975643202527 l -12.153544966295136 -31.324823779977894" fill="#aeff20" stroke="none" /><path d="M 107.2578585660854 119.70592522655815 l 19.0428394409599 51.70351098854582 a76.09884556428435,76.09884556428435 0 0,0 -1.2330927906754587,0.44214320339612645 l -18.150027089654706 -52.02364173298191" fill="#41ffcf" stroke="none" /><path d="M 106.57524785965236 119.94407469862006 l 10.444536810785934 31.68042130016599 a54.35771939068787,54.35771939068787 0 0,0 -0.8911525007500061,0.28531888907171393 l -9.897662964944988 -31.85551303589741" fill="#b1ff20" stroke="none" /><path d="M 106.2309692047433 120.05430185196036 l 9.860502797001391 31.735913467945263 a54.2324798812033,54.2324798812033 0 0,0 -0.8938675469071593,0.26931495937583094 l -9.312760275653986 -31.90094379642682" fill="#b3ff20" stroke="none" /><path d="M 105.88484417918355 120.15858648285463 l 9.309941323661658 31.89128745111026 a54.22242048285112,54.22242048285112 0 0,0 -0.8982042893290628,0.2538415040845379 l -8.75960586622799 -32.046817748533314" fill="#b3ff20" stroke="none" /><path d="M 105.18746579009965 120.34920634021253 l 8.153622250627153 31.984739429958264 a54.007652328032194,54.007652328032194 0 0,0 -0.9028194737374461,0.22189106115599852 l -7.6018494921464965 -32.12035174942829" fill="#b6ff1f" stroke="none" /><path d="M 104.83641907484287 120.43548508189849 l 12.408382666402339 52.429558924852145 a74.87788608928915,74.87788608928915 0 0,0 -1.2568069572633778,0.28604517166099247 l -11.5040555597461 -52.63538083009082" fill="#3fffbf" stroke="none" /><path d="M 104.13013068566511 120.58985236759428 l 6.587910600783789 32.84257012782725 a54.49679057290669,54.49679057290669 0 0,0 -0.9213393121564436,0.17657687198082675 l -6.0216036740556405 -32.95110419815655" fill="#afff20" stroke="none" /><path d="M 103.7750983002368 120.6578951692458 l 5.89813900819596 32.27548732103437 a53.809985150411954,53.809985150411954 0 0,0 -0.9125943598282351,0.15866622715605036 l -5.341695676895675 -32.372232126711424" fill="#b8ff1f" stroke="none" /><path d="M 103.41894727170886 120.7198165907248 l 5.4541265689261476 33.05359608961297 a54.500562847288755,54.500562847288755 0 0,0 -0.926935545819125,0.14476826886462893 l -4.884355159498505 -33.142582665824705" fill="#afff20" stroke="none" /><path d="M 103.06178313531738 120.77559828337769 l 4.795439369798076 32.539248384386795 a53.89071182218816,53.89071182218816 0 0,0 -0.9188915763864498,0.1273499995280489 l -4.2346192022247955 -32.61697294940745" fill="#b7ff1f" stroke="none" /><path d="M 102.34483914955558 120.86867818915974 l 5.251064870747448 46.733603436636216 a68.02768729641693,68.02768729641693 0 0,0 -1.1647875657189841,0.12073499371579238 l -4.445844708422861 -46.81706779880776" fill="#35ff63" stroke="none" /><path d="M 101.26447882468166 120.96189622390904 l 1.9327276574705325 32.039790460845055 a53.09803123203679,53.09803123203679 0 0,0 -0.9128106104056661,0.04718188206364026 l -1.3809289786513868 -32.068312149670895" fill="#c2ff1e" stroke="none" /><path d="M 100.90346689309514 120.98055641714683 l 1.1129962551817552 25.84630483128825 a46.8702577122054,46.8702577122054 0 0,0 -0.8063462011039992,0.02777219354923353 l -0.6679297024031038 -25.861633823263578" fill="#ffe015" stroke="none" /><line stroke="#e1ed5e" stroke-width="0.3" x1="102.19456741930631" x2="102.32365962044197" y1="184.97166512339345" y2="189.96999836594603" /><path d="M 102.22038585953345 185.97133177190398 a86.0,86.0 0 0,1 -42.740103519485714,-10.115201625700543" fill="none" id="id79" stroke="none" /><text fill="#e1ed5e" style="font-size:6.75px; font-family:Arial;" text-anchor="middle"><textPath startOffset="22.20632615414155" xlink:href="#id79">July</textPath></text><path d="M 100.54218724476979 120.99299961872073 l 0.8340128545151773 32.29222322313973 a53.30299147346235,53.30299147346235 0 0,0 -0.9174214175150813,0.015794241692018016 l -0.27803174710742795 -32.3017949421109" fill="#c0ff1e" stroke="none" /><path d="M 99.81925306533755 120.99922214144158 l -0.4741035559963596 55.08146464009356 a76.08350498179728,76.08350498179728 0 0,0 -1.3095069349844548,-0.022544349449066796 l 1.4221701808734823 -55.065142813365334" fill="#41ffce" stroke="none" /><path d="M 99.09653310690486 120.98055641714683 l -1.3191391311414828 30.633411334161146 a51.66180063230503,51.66180063230503 0 0,0 -0.8881203064526514,-0.045905675371972016 l 1.846247506007623 -30.606165852026972" fill="#d7ff1c" stroke="none" /><path d="M 98.73552117531835 120.96189622390904 l -1.9574405986695003 32.4494692144068 a53.50845468480552,53.50845468480552 0 0,0 -0.9189114939292375,-0.06337351668506906 l 2.515714853377668 -32.41096735320544" fill="#bdff1f" stroke="none" /><path d="M 98.37488393609728 120.93702456842531 l -2.5114333155584183 32.35580657761321 a53.453127993868556,53.453127993868556 0 0,0 -0.916735608641925,-0.079099805735894 l 3.0680132419418853 -32.30778251959865" fill="#bdff1f" stroke="none" /><path d="M 97.2962882734958 120.8252237178851 l -5.553481649002118 42.775454431739 a64.13444864916652,64.13444864916652 0 0,0 -1.0935577324410903,-0.1515571371955765 l 6.28896797263004 -42.673522729050816" fill="#33ff2f" stroke="none" /><path d="M 96.58105272829116 120.7198165907248 l -5.550957981763729 33.64042266363414 a55.09532477486108,55.09532477486108 0 0,0 -0.9343931707451535,-0.1624562298526773 l 6.129200123980933 -33.53988785526046" fill="#a7ff21" stroke="none" /><path d="M 96.22490169976321 120.6578951692458 l -6.12101736875552 33.49511061074961 a55.04980599731749,55.04980599731749 0 0,0 -0.9306887590758589,-0.17836871573479923 l 6.696673742403074 -33.384784696666344" fill="#a7ff21" stroke="none" /><path d="M 95.86986931433489 120.58985236759428 l -6.57153925022626 32.76095438326802 a54.41354905154244,54.41354905154244 0 0,0 -0.9167608699222194,-0.19211615379118377 l 7.134491581577866 -32.6429822487503" fill="#b0ff20" stroke="none" /><path d="M 95.16358092515715 120.4354850818985 l -7.358012977667066 31.09006107838508 a52.9489006514658,52.9489006514658 0 0,0 -0.8851208404835785,-0.21754116770780518 l 7.892087102893855 -30.958798652363246" fill="#c4ff1e" stroke="none" /><path d="M 94.81253420990036 120.34920634021253 l -12.562135732549205 49.27829935443113 a71.8542824295842,71.8542824295842 0 0,0 -1.1958932587648647,-0.31584627894448947 l 13.408519434125559 -49.05476172618305" fill="#3bff98" stroke="none" /><path d="M 94.11515582081647 120.15858648285463 l -9.18125616521187 31.450475287409215 a53.76320894807434,53.76320894807434 0 0,0 -0.8861329557774589,-0.2669845905162707 l 9.721264095429575 -31.287775327787216" fill="#b9ff1f" stroke="none" /><path d="M 93.76903079525671 120.05430185196036 l -10.499314439100038 33.79192130175721 a56.385442613527495,56.385442613527495 0 0,0 -0.9243954447351056,-0.29596222995817195 l 11.079431228926085 -33.60618622513934" fill="#95ff23" stroke="none" /><path d="M 93.42475214034765 119.94407469862007 l -10.497687465907406 31.841638133150866 a54.527471737880816,54.527471737880816 0 0,0 -0.8888763791565053,-0.30155512855402333 l 11.044233578001137 -31.65622001769872" fill="#afff20" stroke="none" /><path d="M 92.7421414339146 119.70592522655815 l -12.662400905347663 34.37988260000866 a57.637586223414445,57.637586223414445 0 0,0 -0.928046871696823,-0.3509079170615879 l 13.252317997804768 -34.15682643284045" fill="#85ff25" stroke="none" /><path d="M 92.40401165467489 119.57807347666478 l -20.328347186899304 52.394745330172306 a77.20009819888867,77.20009819888867 0 0,0 -1.234756472024077,-0.4913350826877622 l 21.227224734965237 -52.03706340307848" fill="#43ffdc" stroke="none" /><path d="M 91.7346041902142 119.30500536409082 l -13.270620348890969 30.99541787422184 a54.71683991186051,54.71683991186051 0 0,0 -0.8626483068037639,-0.37815966680589624 l 13.802189330352476 -30.762393654121492" fill="#acff21" stroke="none" /><path d="M 91.40352486487194 119.15986991738527 l -14.833511038339072 33.06100901185723 a57.23621622916267,57.23621622916267 0 0,0 -0.8954251824979127,-0.41104578345297244 l 15.400404216604404 -32.800776158070185" fill="#8aff24" stroke="none" /><path d="M 91.07499286063937 119.00905698771935 l -14.357778178995869 30.58012384302896 a54.78298045602605,54.78298045602605 0 0,0 -0.8501466352290101,-0.40812204823587284 l 14.88203748222512 -30.328447518293526" fill="#abff21" stroke="none" /><path d="M 90.42595943632237 118.69057910512821 l -15.659743033971804 30.571174625355983 a55.34857012837708,55.34857012837708 0 0,0 -0.8442214544890203,-0.4416567646186304 l 16.18365539098732 -30.29708844179264" fill="#a3ff21" stroke="none" /><path d="M 90.10565033884886 118.52300852407294 l -25.494207140894787 47.72718090198711 a75.10950373634796,75.10950373634796 0 0,0 -1.1351449094182835,-0.6189715125361814 l 26.31197486218171 -47.281268737691164" fill="#3fffc2" stroke="none" /><line stroke="#e1ed5e" stroke-width="0.3" x1="58.666819895761336" x2="56.23545636021788" y1="174.27360380694188" y2="178.64263932499728" /><path d="M 58.180547188652646 175.14741091055294 a86.0,86.0 0 0,1 -31.652253787137756,-30.449443065178592" fill="none" id="id80" stroke="none" /><text fill="#e1ed5e" style="font-size:6.75px; font-family:Arial;" text-anchor="middle"><textPath startOffset="22.20632615414155" xlink:href="#id80">August</textPath></text><path d="M 89.4739219176387 118.17145234162733 l -16.952602713456123 29.265735050010694 a54.821206169764324,54.821206169764324 0 0,0 -0.8124819385241783,-0.4800286504321415 l 17.453852523008685 -28.9695878272848" fill="#aaff21" stroke="none" /><path d="M 89.1626897886671 117.98757091392108 l -18.572572752239495 30.826419371618 a56.98900651465798,56.98900651465798 0 0,0 -0.8358952086527535,-0.513475109360285 l 19.100447160824555 -30.50215579542934" fill="#8dff24" stroke="none" /><path d="M 88.8546689885994 117.79835938074946 l -19.00434831132982 30.348692263692662 a56.80793734431884,56.80793734431884 0 0,0 -0.8243053474758151,-0.526110673416733 l 19.52393546085256 -30.017067161452125" fill="#90ff24" stroke="none" /><path d="M 88.24862548938628 117.40417183066458 l -19.008450587967225 28.152139987444027 a54.96857635562368,54.96857635562368 0 0,0 -0.779619620457309,-0.536229483901773 l 19.490227093047423 -27.82076971417715" fill="#a8ff21" stroke="none" /><path d="M 87.95078237400918 117.19931262002967 l -33.2721402216836 47.493369194013745 a78.98840774094654,78.98840774094654 0 0,0 -1.1068633245185717,-0.7897175930000102 l 34.08473087405106 -46.913607339169516" fill="#45fff2" stroke="none" /><path d="M 87.36589467227662 116.77436683061367 l -20.438279821272168 27.136009572157583 a54.971845660088135,54.971845660088135 0 0,0 -0.750944917217585,-0.5757925405884475 l 20.90235346698324 -26.780177689741766" fill="#a8ff21" stroke="none" /><path d="M 87.07902340077011 116.55440617244103 l -23.21780534750245 29.746743769982327 a58.73506658363671,58.73506658363671 0 0,0 -0.791643833868831,-0.628929739681449 l 23.726406674088636 -29.342680116295746" fill="#76ff27" stroke="none" /><path d="M 86.79598089348748 116.32954008644616 l -22.183270746941968 27.434268762305187 a56.28082487066488,56.28082487066488 0 0,0 -0.7480790195975033,-0.6156181041683764 l 22.652219895084162 -27.04835553927963" fill="#97ff23" stroke="none" /><path d="M 86.24171649860922 115.8653595955263 l -23.91421130156475 27.57666402966407 a57.50153286070128,57.50153286070128 0 0,0 -0.7422014381660104,-0.6549064749000012 l 24.38535509263735 -27.16093441299178" fill="#86ff25" stroke="none" /><path d="M 85.97065885151581 115.62618273729859 l -34.00734202637511 37.87811097396882 a71.90432793638628,71.90432793638628 0 0,0 -0.9138713105478348,-0.8347997745058056 l 34.6543128863898 -37.28711843287645" fill="#3bff98" stroke="none" /><path d="M 85.44109423537348 115.13401014063109 l -23.551519789438586 24.48184946609419 a54.97109120521173,54.97109120521173 0 0,0 -0.6762754300390956,-0.6618778454034201 l 23.969445171853476 -24.072821517768197" fill="#a8ff21" stroke="none" /><path d="M 85.18274418774928 114.88116024355367 l -28.41068266616301 28.533213352122296 a61.26550823912627,61.26550823912627 0 0,0 -0.7409023894315993,-0.750530208839102 l 28.89762568065014 -28.039942649302528" fill="#56ff2a" stroke="none" /><path d="M 84.9287848128048 114.62390073753433 l -25.702139657354362 24.939298817174183 a56.81296704349492,56.81296704349492 0 0,0 -0.6749744320988181,-0.7077079935433919 l 26.127620640832138 -24.493183707048292" fill="#90ff24" stroke="none" /><path d="M 84.43433777217949 114.09645910891817 l -25.18198459571671 22.80512135876094 a54.973606054799774,54.973606054799774 0 0,0 -0.6291628437233168,-0.7068711246326651 l 25.570806289088363 -22.368276064387413" fill="#a8ff21" stroke="none" /><path d="M 84.19399662182784 113.82643327865904 l -38.438737425978815 33.62460614617749 a72.07005652423837,72.07005652423837 0 0,0 -0.8087546978854351,-0.9407644265722238 l 39.01183463343503 -32.95796462044373" fill="#3bff9a" stroke="none" /><path d="M 83.72743513129214 113.27417163493432 l -26.34002566396539 21.486595650597973 a54.9922159417513,54.9922159417513 0 0,0 -0.5920359524210045,-0.7386558803343789 l 26.705979528441254 -21.030011936685334" fill="#a8ff21" stroke="none" /><path d="M 83.50135304334701 112.99209946851258 l -25.901634925062556 20.396619082015917 a53.968420674458706,53.968420674458706 0 0,0 -0.5684498446998913,-0.7347980520848113 l 26.248891586980516 -19.947743035817854" fill="#b6ff1f" stroke="none" /><path d="M 83.28015986056508 112.70617746262583 l -29.6243354587782 22.512898473460915 a58.20795410998275,58.20795410998275 0 0,0 -0.5993721078577756,-0.8029568864654878 l 30.00746883333106 -21.99962870748612" fill="#7dff26" stroke="none" /><path d="M 82.85270091963577 112.12312394758628 l -29.621720958764865 20.942528210471554 a57.27720827744779,57.27720827744779 0 0,0 -0.5622415121237431,-0.8099508321677377 l 29.97782337805074 -20.429536116116804" fill="#89ff24" stroke="none" /><path d="M 82.6465618267979 111.8261652097733 l -45.883202090737505 31.268865734999842 a76.52486108449895,76.52486108449895 0 0,0 -0.7324409255647398,-1.0948998048294976 l 46.41464612171298 -30.47442901596452" fill="#42ffd4" stroke="none" /><path d="M 82.24976979558568 111.22182372390057 l -29.835538549424992 18.86224293733516 a56.29792584786357,56.29792584786357 0 0,0 -0.5107974089223516,-0.8235680646185718 l 30.1558005980153 -18.345878541351322" fill="#96ff23" stroke="none" /><path d="M 82.05923443525364 110.91462005526583 l -33.90062172985964 20.624114644571332 a60.681308679823715,60.681308679823715 0 0,0 -0.5352066121505824,-0.8970370669911917 l 34.25060921770845 -20.03751548369403" fill="#5eff2a" stroke="none" /><line stroke="#e1ed5e" stroke-width="0.3" x1="26.63291911575756" x2="22.317208475507996" y1="142.92168965132927" y2="145.44649492493687" /><path d="M 25.769776987707644 143.4266507060508 a86.0,86.0 0 0,1 -11.730757126820373,-40.83630448921669" fill="none" id="id81" stroke="none" /><text fill="#e1ed5e" style="font-size:6.75px; font-family:Arial;" text-anchor="middle"><textPath startOffset="21.46611528233685" xlink:href="#id81">September</textPath></text><path d="M 81.87401531095188 110.60418214915194 l -29.759053421749176 17.409836126654227 a55.47758191224373,55.47758191224373 0 0,0 -0.4751205888195247,-0.8284127946404662 l 30.054326006721077 -16.895003486155453" fill="#a2ff22" stroke="none" /><path d="M 81.51974371655577 109.97397251340807 l -31.02675332814894 16.74543794895763 a56.25718528453727,56.25718528453727 0 0,0 -0.45259573086430577,-0.8561405576407547 l 31.310401567238127 -16.20888237623075" fill="#97ff23" stroke="none" /><path d="M 81.35079622478065 109.6543875284942 l -47.377651845076386 24.526634842728857 a74.34976767579997,74.34976767579997 0 0,0 -0.5785875206981552,-1.141608068949788 l 47.79281803556081 -23.707472562076383" fill="#3effb8" stroke="none" /><path d="M 81.02952815118164 109.00673069616217 l -32.759413208943386 15.553393446859841 a57.26413105958996,57.26413105958996 0 0,0 -0.41509782342287915,-0.8940837828168944 l 33.02228564920609 -14.98718959676412" fill="#8aff24" stroke="none" /><path d="M 80.87730276802145 108.67885076344099 l -28.127567664004076 12.765718095784674 a51.888891550105384,51.888891550105384 0 0,0 -0.3621323647657001,-0.816512882394401 l 28.343141113501055 -12.279656876897578" fill="#d3ff1c" stroke="none" /><path d="M 80.73074385275274 108.34839909993369 l -34.39408998652651 14.901228552487503 a58.48333013987354,58.48333013987354 0 0,0 -0.39225331746702813,-0.9271709727352394 l 34.64549428518584 -14.306983054086103" fill="#7aff26" stroke="none" /><path d="M 80.45479744820244 107.68017299344265 l -29.502479589496602 11.592826750317101 a52.69842163249665,52.69842163249665 0 0,0 -0.32448606540357067,-0.8471307242009797 l 29.697659934493682 -11.083272459282963" fill="#c8ff1d" stroke="none" /><path d="M 80.32549172779594 107.34259656027581 l -59.02352481661217 22.027789680827432 a84.0,84.0 0 0,0 -0.4939029559791024,-1.3590088119755315 l 59.3939520335965 -21.008533071845783" fill="#4dd2ff" stroke="none" /><path d="M 80.0844068197444 106.66101706037122 l -32.67718016877252 10.929288051776949 a55.45645717570416,55.45645717570416 0 0,0 -0.29499599989103237,-0.907904332397187 l 32.860468419679805 -10.365184819401957" fill="#a2ff22" stroke="none" /><path d="M 79.97269907076064 106.31721596034903 l -26.664534186517677 8.41079991425182 a48.95959474995209,48.95959474995209 0 0,0 -0.24660068349973085,-0.8059053018971811 l 26.80536164252354 -7.950567639802592" fill="#feff18" stroke="none" /><path d="M 79.86692584326677 105.97154293290107 l -27.731679793871614 8.225316968555777 a49.92579996167848,49.92579996167848 0 0,0 -0.23728392597747502,-0.8260164750541961 l 27.869156356735193 -7.746743017996986" fill="#f0ff19" stroke="none" /><path d="M 79.67330655649465 105.27499134158121 l -21.323749109636285 5.533737803249115 a43.030082391262695,43.030082391262695 0 0,0 -0.17988354185258557,-0.7185453315739206 l 21.415843965783928 -5.165864632277803" fill="#ffa50f" stroke="none" /><path d="M 79.58551787078972 104.9243191809786 l -53.90754193693134 13.003413022150877 a76.45369084115731,76.45369084115731 0 0,0 -0.2975848296131665,-1.2819876574549398 l 54.12338733247506 -12.073556707347363" fill="#42ffd3" stroke="none" /><path d="M 79.4281124754447 104.21870165774334 l -30.308945420231222 6.215491803372864 a51.93969151178386,51.93969151178386 0 0,0 -0.17206894379514343,-0.8773758373395424 l 30.411444297002035 -5.692852238965368" fill="#d3ff1c" stroke="none" /><path d="M 79.35854240842038 103.8639653848113 l -31.11346742835006 5.824267041763605 a52.653908794788265,52.653908794788265 0 0,0 -0.15909894465605695,-0.892311373365175 l 31.209112815345307 -5.287836917665216" fill="#c9ff1d" stroke="none" /><path d="M 79.23777060512086 103.15116336523772 l -28.84991139522199 4.378661951466558 a50.180302739988505,50.180302739988505 0 0,0 -0.12226299095075566,-0.8551070739475808 l 28.921008437189347 -3.881409405538577" fill="#ecff1a" stroke="none" /><path d="M 79.18660465613746 102.79330883721812 l -29.326538642023415 3.9358345046733954 a50.58946876796321,50.58946876796321 0 0,0 -0.10840236869343134,-0.8640735365285738 l 29.389942519963697 -3.430443213857413" fill="#e6ff1a" stroke="none" /><line stroke="#e1ed5e" stroke-width="0.3" x1="15.007084014347285" x2="10.007500721073583" y1="101.09737516637583" y2="101.16192664675087" /><path d="M 14.007167355692545 101.11028546245083 a86.0,86.0 0 0,1 10.666146001902534,-42.60595125391555" fill="none" id="id82" stroke="none" /><text fill="#e1ed5e" style="font-size:6.75px; font-family:Arial;" text-anchor="middle"><textPath startOffset="22.20632615414155" xlink:href="#id82">October</textPath></text><line stroke="#e1ed5e" stroke-width="0.3" x1="26.266209847984243" x2="21.928928074336255" y1="57.711370442889674" y2="55.22380399835377" /><path d="M 25.398753493254645 57.213857153982495 a86.0,86.0 0 0,1 29.58750427330803,-30.492523968695096" fill="none" id="id83" stroke="none" /><text fill="#e1ed5e" style="font-size:6.75px; font-family:Arial;" text-anchor="middle"><textPath startOffset="21.46611528233685" xlink:href="#id83">November</textPath></text><line stroke="#e1ed5e" stroke-width="0.3" x1="56.762969772571076" x2="54.21961505331055" y1="26.818313649435495" y2="22.513508569990535" /><path d="M 56.25429882871897 25.957352633546506 a86.0,86.0 0 0,1 42.265352541879196,-11.944610805530505" fill="none" id="id84" stroke="none" /><text fill="#e1ed5e" style="font-size:6.75px; font-family:Arial;" text-anchor="middle"><textPath startOffset="22.20632615414155" xlink:href="#id84">December</textPath></text></svg>